<?xml version="1.0" encoding="UTF-8"?>
<svg xmlns="http://www.w3.org/2000/svg" xmlns:xlink="http://www.w3.org/1999/xlink" width="100px" height="100px" viewBox="0 0 100 100" version="1.1">
<g id="surface1">
<path style=" stroke:none;fill-rule:nonzero;fill:rgb(9.411765%,46.666667%,94.901961%);fill-opacity:1;" d="M 100 50 C 100 22.386719 77.613281 0 50 0 C 22.386719 0 0 22.386719 0 50 C 0 74.957031 18.285156 95.640625 42.1875 99.390625 L 42.1875 64.453125 L 29.492188 64.453125 L 29.492188 50 L 42.1875 50 L 42.1875 38.984375 C 42.1875 26.453125 49.652344 19.53125 61.074219 19.53125 C 66.542969 19.53125 72.265625 20.507812 72.265625 20.507812 L 72.265625 32.8125 L 65.960938 32.8125 C 59.75 32.8125 57.8125 36.667969 57.8125 40.621094 L 57.8125 50 L 71.679688 50 L 69.460938 64.453125 L 57.8125 64.453125 L 57.8125 99.390625 C 81.714844 95.640625 100 74.957031 100 50 Z M 100 50 "/>
<path style=" stroke:none;fill-rule:nonzero;fill:rgb(100%,100%,100%);fill-opacity:1;" d="M 69.460938 64.453125 L 71.679688 50 L 57.8125 50 L 57.8125 40.621094 C 57.8125 36.667969 59.75 32.8125 65.960938 32.8125 L 72.265625 32.8125 L 72.265625 20.507812 C 72.265625 20.507812 66.542969 19.53125 61.074219 19.53125 C 49.652344 19.53125 42.1875 26.453125 42.1875 38.984375 L 42.1875 50 L 29.492188 50 L 29.492188 64.453125 L 42.1875 64.453125 L 42.1875 99.390625 C 44.734375 99.792969 47.34375 100 50 100 C 52.65625 100 55.265625 99.792969 57.8125 99.390625 L 57.8125 64.453125 Z M 69.460938 64.453125 "/>
</g>
</svg>
