<?xml version="1.0" encoding="UTF-8"?>
<svg xmlns="http://www.w3.org/2000/svg" xmlns:xlink="http://www.w3.org/1999/xlink" width="100px" height="100px" viewBox="0 0 500 500" version="1.1">
<defs>
<linearGradient id="linear0" gradientUnits="userSpaceOnUse" x1="146.446503" y1="853.553528" x2="853.553528" y2="146.446503" gradientTransform="matrix(0.5,0,0,0.5,0,0)">
<stop offset="0" style="stop-color:rgb(100%,83.529412%,12.941176%);stop-opacity:1;"/>
<stop offset="0.0551048" style="stop-color:rgb(100%,81.568627%,12.54902%);stop-opacity:1;"/>
<stop offset="0.1241" style="stop-color:rgb(99.607843%,75.294118%,11.764706%);stop-opacity:1;"/>
<stop offset="0.2004" style="stop-color:rgb(98.823529%,65.490196%,10.588235%);stop-opacity:1;"/>
<stop offset="0.2821" style="stop-color:rgb(98.039216%,51.372549%,8.627451%);stop-opacity:1;"/>
<stop offset="0.3681" style="stop-color:rgb(97.254902%,33.333333%,6.27451%);stop-opacity:1;"/>
<stop offset="0.4563" style="stop-color:rgb(96.078431%,11.764706%,3.529412%);stop-opacity:1;"/>
<stop offset="0.5" style="stop-color:rgb(95.294118%,0%,1.960784%);stop-opacity:1;"/>
<stop offset="0.5035" style="stop-color:rgb(94.901961%,0%,2.745098%);stop-opacity:1;"/>
<stop offset="0.5966" style="stop-color:rgb(88.235294%,0%,23.137255%);stop-opacity:1;"/>
<stop offset="0.6879" style="stop-color:rgb(82.745098%,0%,40.392157%);stop-opacity:1;"/>
<stop offset="0.7757" style="stop-color:rgb(78.039216%,0%,53.333333%);stop-opacity:1;"/>
<stop offset="0.8589" style="stop-color:rgb(74.901961%,0%,62.745098%);stop-opacity:1;"/>
<stop offset="0.9357" style="stop-color:rgb(73.333333%,0%,68.627451%);stop-opacity:1;"/>
<stop offset="1" style="stop-color:rgb(72.54902%,0%,70.588235%);stop-opacity:1;"/>
</linearGradient>
</defs>
<g id="surface1">
<path style=" stroke:none;fill-rule:nonzero;fill:url(#linear0);" d="M 250 500 C 111.949219 500 0 388.050781 0 250 C 0 111.949219 111.949219 0 250 0 C 388.050781 0 500 111.949219 500 250 C 500 388.050781 388.050781 500 250 500 Z M 250 500 "/>
<path style=" stroke:none;fill-rule:nonzero;fill:rgb(100%,100%,100%);fill-opacity:1;" d="M 250 110.101562 C 295.550781 110.101562 300.949219 110.25 318.949219 111.101562 C 335.601562 111.851562 344.648438 114.648438 350.648438 117 C 358.601562 120.101562 364.300781 123.800781 370.25 129.75 C 376.199219 135.699219 379.898438 141.398438 383 149.351562 C 385.351562 155.351562 388.101562 164.398438 388.898438 181.050781 C 389.699219 199.050781 389.898438 204.449219 389.898438 250 C 389.898438 295.550781 389.75 300.949219 388.898438 318.949219 C 388.148438 335.601562 385.351562 344.648438 383 350.648438 C 379.898438 358.601562 376.199219 364.300781 370.25 370.25 C 364.300781 376.199219 358.601562 379.898438 350.648438 383 C 344.648438 385.351562 335.601562 388.101562 318.949219 388.898438 C 300.949219 389.699219 295.550781 389.898438 250 389.898438 C 204.449219 389.898438 199.050781 389.75 181.050781 388.898438 C 164.398438 388.148438 155.351562 385.351562 149.351562 383 C 141.398438 379.898438 135.699219 376.199219 129.75 370.25 C 123.800781 364.300781 120.101562 358.601562 117 350.648438 C 114.648438 344.648438 111.898438 335.601562 111.101562 318.949219 C 110.300781 300.949219 110.101562 295.550781 110.101562 250 C 110.101562 204.449219 110.25 199.050781 111.101562 181.050781 C 111.851562 164.398438 114.648438 155.351562 117 149.351562 C 120.101562 141.398438 123.800781 135.699219 129.75 129.75 C 135.699219 123.800781 141.398438 120.101562 149.351562 117 C 155.351562 114.648438 164.398438 111.898438 181.050781 111.101562 C 199.050781 110.25 204.449219 110.101562 250 110.101562 M 250 79.351562 C 203.648438 79.351562 197.851562 79.550781 179.648438 80.398438 C 161.5 81.25 149.101562 84.101562 138.199219 88.351562 C 127 92.648438 117.449219 98.5 108 108 C 98.5 117.5 92.699219 127 88.300781 138.25 C 84.101562 149.101562 81.199219 161.5 80.351562 179.699219 C 79.5 197.898438 79.300781 203.699219 79.300781 250.050781 C 79.300781 296.398438 79.5 302.199219 80.351562 320.398438 C 81.199219 338.550781 84.050781 350.949219 88.300781 361.851562 C 92.648438 373 98.5 382.550781 108 392 C 117.5 401.5 127 407.300781 138.25 411.699219 C 149.101562 415.898438 161.5 418.800781 179.699219 419.648438 C 197.898438 420.5 203.699219 420.699219 250.050781 420.699219 C 296.398438 420.699219 302.199219 420.5 320.398438 419.648438 C 338.550781 418.800781 350.949219 415.949219 361.851562 411.699219 C 373 407.351562 382.550781 401.5 392 392 C 401.5 382.5 407.300781 373 411.699219 361.75 C 415.898438 350.898438 418.800781 338.5 419.648438 320.300781 C 420.5 302.101562 420.699219 296.300781 420.699219 249.949219 C 420.699219 203.601562 420.5 197.800781 419.648438 179.601562 C 418.800781 161.449219 415.949219 149.050781 411.699219 138.148438 C 407.351562 127 401.5 117.449219 392 108 C 382.5 98.5 373 92.699219 361.75 88.300781 C 350.898438 84.101562 338.5 81.199219 320.300781 80.351562 C 302.148438 79.550781 296.351562 79.351562 250 79.351562 Z M 250 79.351562 "/>
<path style=" stroke:none;fill-rule:nonzero;fill:rgb(100%,100%,100%);fill-opacity:1;" d="M 250 162.351562 C 201.601562 162.351562 162.351562 201.601562 162.351562 250 C 162.351562 298.398438 201.601562 337.648438 250 337.648438 C 298.398438 337.648438 337.648438 298.398438 337.648438 250 C 337.648438 201.601562 298.398438 162.351562 250 162.351562 Z M 250 306.898438 C 218.601562 306.898438 193.101562 281.449219 193.101562 250 C 193.101562 218.550781 218.601562 193.101562 250 193.101562 C 281.398438 193.101562 306.898438 218.550781 306.898438 250 C 306.898438 281.449219 281.398438 306.898438 250 306.898438 Z M 250 306.898438 "/>
<path style=" stroke:none;fill-rule:nonzero;fill:rgb(100%,100%,100%);fill-opacity:1;" d="M 361.601562 158.898438 C 361.601562 147.578125 352.421875 138.398438 341.101562 138.398438 C 329.777344 138.398438 320.601562 147.578125 320.601562 158.898438 C 320.601562 170.222656 329.777344 179.398438 341.101562 179.398438 C 352.421875 179.398438 361.601562 170.222656 361.601562 158.898438 Z M 361.601562 158.898438 "/>
</g>
</svg>
