<?xml version="1.0" encoding="UTF-8"?>
<svg xmlns="http://www.w3.org/2000/svg" xmlns:xlink="http://www.w3.org/1999/xlink" width="100px" height="100px" viewBox="0 0 500 500" version="1.1">
<g id="surface1">
<path style=" stroke:none;fill-rule:nonzero;fill:rgb(14.509805%,82.745099%,40.000001%);fill-opacity:1;" d="M 250 500 C 111.949219 500 0 388.050781 0 250 C 0 111.949219 111.949219 0 250 0 C 388.050781 0 500 111.949219 500 250 C 500 388.050781 388.050781 500 250 500 Z M 250 500 "/>
<path style=" stroke:none;fill-rule:evenodd;fill:rgb(100%,100%,100%);fill-opacity:1;" d="M 366.949219 133.601562 C 335.949219 102.550781 294.648438 85.449219 250.699219 85.398438 C 160.148438 85.398438 86.398438 159.101562 86.398438 249.699219 C 86.398438 278.648438 93.949219 306.949219 108.351562 331.851562 L 85.050781 417 L 172.148438 394.148438 C 196.148438 407.25 223.148438 414.148438 250.648438 414.148438 L 250.699219 414.148438 C 341.25 414.148438 414.949219 340.449219 415 249.851562 C 415.050781 205.949219 398 164.648438 366.949219 133.601562 Z M 250.75 386.398438 L 250.699219 386.398438 C 226.199219 386.398438 202.148438 379.800781 181.199219 367.351562 L 176.199219 364.398438 L 124.5 377.949219 L 138.300781 327.550781 L 135.050781 322.398438 C 121.398438 300.648438 114.148438 275.550781 114.148438 249.699219 C 114.199219 174.398438 175.449219 113.148438 250.800781 113.148438 C 287.300781 113.148438 321.550781 127.398438 347.351562 153.199219 C 373.148438 179 387.351562 213.351562 387.300781 249.800781 C 387.300781 325.148438 326 386.398438 250.75 386.398438 Z M 325.648438 284.101562 C 321.550781 282.050781 301.351562 272.101562 297.601562 270.75 C 293.851562 269.398438 291.101562 268.699219 288.351562 272.800781 C 285.601562 276.898438 277.75 286.148438 275.351562 288.898438 C 272.949219 291.648438 270.550781 292 266.449219 289.949219 C 262.351562 287.898438 249.101562 283.550781 233.449219 269.550781 C 221.25 258.648438 213 245.199219 210.601562 241.101562 C 208.199219 237 210.351562 234.75 212.398438 232.699219 C 214.25 230.851562 216.5 227.898438 218.550781 225.5 C 220.601562 223.101562 221.300781 221.398438 222.648438 218.648438 C 224 215.898438 223.351562 213.5 222.300781 211.449219 C 221.25 209.398438 213.050781 189.199219 209.648438 180.949219 C 206.300781 172.949219 202.949219 174.050781 200.398438 173.898438 C 198 173.800781 195.25 173.75 192.550781 173.75 C 189.800781 173.75 185.351562 174.800781 181.601562 178.898438 C 177.851562 183 167.25 192.949219 167.25 213.148438 C 167.25 233.351562 181.949219 252.898438 184 255.601562 C 186.050781 258.351562 212.949219 299.800781 254.148438 317.601562 C 263.949219 321.851562 271.601562 324.351562 277.550781 326.25 C 287.398438 329.398438 296.351562 328.949219 303.398438 327.898438 C 311.300781 326.699219 327.699219 317.949219 331.101562 308.398438 C 334.5 298.800781 334.5 290.601562 333.5 288.898438 C 332.5 287.199219 329.75 286.199219 325.648438 284.101562 Z M 325.648438 284.101562 "/>
</g>
</svg>
